<svg class="ladi-icons" xmlns="http://www.w3.org/2000/svg" width="135" height="27" viewBox="0 0 135 27"><style>.ladi-icons{-webkit-filter: drop-shadow(1px 0px 1px rgba(0,0,0,0.8));filter: drop-shadow(1px 0px 1px rgba(0,0,0,0.8));fill: #fafafa;}</style><polygon points="13.5 20.6 1.4 8.5 3.5 6.4 13.5 16.4 23.5 6.4 25.6 8.5 13.5 20.6"/><polygon points="45.5 25.6 33.4 13.5 45.5 1.4 47.6 3.5 37.6 13.5 47.6 23.5 45.5 25.6"/><polygon points="62.5 25.6 60.4 23.5 70.4 13.5 60.4 3.5 62.5 1.4 74.6 13.5 62.5 25.6"/><polygon points="104.5 20.6 94.5 10.6 84.5 20.6 82.4 18.5 94.5 6.4 106.6 18.5 104.5 20.6"/><g><rect x="111.4" y="12" width="22.8" height="3" transform="translate(26.4 90.8) rotate(-45)"/><rect x="121.3" y="2.1" width="3" height="22.8" transform="translate(26.4 90.8) rotate(-45)"/></g></svg>